<?xml version="1.0" encoding="utf-8"?>
<!-- Generator: Adobe Illustrator 16.0.0, SVG Export Plug-In . SVG Version: 6.00 Build 0)  -->
<!DOCTYPE svg PUBLIC "-//W3C//DTD SVG 1.1//EN" "http://www.w3.org/Graphics/SVG/1.1/DTD/svg11.dtd">
<svg version="1.1" id="Layer_1" xmlns:sketch="http://www.bohemiancoding.com/sketch/ns"
	 xmlns="http://www.w3.org/2000/svg" xmlns:xlink="http://www.w3.org/1999/xlink" x="0px" y="0px" width="32px" height="64px"
	 viewBox="0 0 32 64" enable-background="new 0 0 32 64" xml:space="preserve">
<title>icon-1</title>
<desc>Created with Sketch.</desc>
<path id="Shape" display="none" fill="#505977" d="M16,32C7.2,32,0,24.8,0,16S7.2,0,16,0s16,7.2,16,16S24.8,32,16,32L16,32z M16,2
	C8.3,2,2,8.3,2,16s6.3,14,14,14s14-6.3,14-14S23.7,2,16,2L16,2z M27,17c-0.6,0-1-0.4-1-1c0-5.5-4.5-10-10-10S6,10.5,6,16
	c0,0.6-0.4,1-1,1s-1-0.4-1-1C4,9.4,9.4,4,16,4c6.6,0,12,5.4,12,12C28,16.6,27.6,17,27,17L27,17z M15.7,22l2.7-12
	C18.5,9.5,19.1,9.1,19.6,9.3c0.5,0.1,0.9,0.7,0.801,1.2L17.6,22.6C18.4,23,19,23.9,19,25c0,1.7-1.3,3-3,3s-3-1.3-3-3
	C13,23.5,14.2,22.2,15.7,22L15.7,22z M16,26c0.6,0,1-0.4,1-1s-0.4-1-1-1c-0.6,0-1,0.4-1,1S15.4,26,16,26L16,26z"/>
<path id="Shape_1_" display="none" fill="#FFFFFF" d="M16,64C7.2,64,0,56.8,0,48s7.2-16,16-16s16,7.2,16,16S24.8,64,16,64L16,64z
	 M16,34C8.3,34,2,40.3,2,48s6.3,14,14,14s14-6.3,14-14S23.7,34,16,34L16,34z M27,49c-0.6,0-1-0.4-1-1c0-5.5-4.5-10-10-10
	S6,42.5,6,48c0,0.6-0.4,1-1,1s-1-0.4-1-1c0-6.6,5.4-12,12-12c6.6,0,12,5.4,12,12C28,48.6,27.6,49,27,49L27,49z M15.7,54l2.7-12
	c0.1-0.5,0.699-0.9,1.199-0.7c0.5,0.101,0.9,0.7,0.801,1.2L17.6,54.6C18.4,55,19,55.9,19,57c0,1.7-1.3,3-3,3s-3-1.3-3-3
	C13,55.5,14.2,54.2,15.7,54L15.7,54z M16,58c0.6,0,1-0.4,1-1s-0.4-1-1-1c-0.6,0-1,0.4-1,1S15.4,58,16,58L16,58z"/>
<g>
	<g>
		<path fill="#FFFFFF" d="M26.675,47.607c-0.519,0-0.922,0.428-0.922,0.984v13.471h-6.539v-5.501c0-0.515-0.402-0.966-0.889-0.966
			h-4.729c-0.521,0-0.939,0.451-0.939,0.966v5.501H6.134V49.039c0-0.519-0.401-0.951-0.922-0.951c-0.486,0-0.888,0.433-0.888,0.951
			v14.01c0,0.52,0.402,0.951,0.888,0.951h8.384c0.486,0,0.888-0.432,0.888-0.951v-5.5h2.918v5.5c0,0.52,0.401,0.951,0.922,0.951
			h8.35c0.487,0,0.89-0.432,0.89-0.951V48.594C27.564,48.035,27.162,47.607,26.675,47.607z"/>
		<path fill="#FFFFFF" d="M31.689,48.375l-7.277-7.81v-5.323c0-0.555-0.42-0.982-0.939-0.982c-0.486,0-0.89,0.428-0.89,0.982v3.37
			l-6.002-6.451c-0.184-0.199-0.402-0.306-0.62-0.306c-0.252,0-0.47,0.111-0.654,0.306L0.232,48.269
			c-0.361,0.386-0.385,1.005,0,1.36c0.336,0.413,0.914,0.387,1.275,0l14.453-15.408l14.421,15.553
			c0.149,0.16,0.368,0.253,0.652,0.253c0.252,0,0.47-0.093,0.655-0.253C32.023,49.416,32.05,48.765,31.689,48.375z"/>
	</g>
</g>
<g>
	<g>
		<path fill="#505977" d="M26.675,15.429c-0.519,0-0.922,0.428-0.922,0.985v13.47h-6.539v-5.5c0-0.515-0.402-0.966-0.889-0.966
			h-4.729c-0.521,0-0.939,0.452-0.939,0.966v5.5H6.134V16.862c0-0.519-0.401-0.952-0.922-0.952c-0.486,0-0.888,0.433-0.888,0.952
			v14.009c0,0.521,0.402,0.952,0.888,0.952h8.384c0.486,0,0.888-0.432,0.888-0.952v-5.5h2.918v5.5c0,0.521,0.401,0.952,0.922,0.952
			h8.35c0.487,0,0.89-0.432,0.89-0.952V16.416C27.564,15.857,27.162,15.429,26.675,15.429z"/>
		<path fill="#505977" d="M31.689,16.197l-7.277-7.809V3.064c0-0.555-0.42-0.982-0.939-0.982c-0.486,0-0.89,0.428-0.89,0.982v3.371
			l-6.002-6.451c-0.184-0.199-0.402-0.306-0.62-0.306c-0.252,0-0.47,0.111-0.654,0.306L0.232,16.091
			c-0.361,0.386-0.385,1.005,0,1.361c0.336,0.413,0.914,0.386,1.275,0L15.961,2.043l14.421,15.553
			c0.149,0.161,0.368,0.253,0.652,0.253c0.252,0,0.47-0.092,0.655-0.253C32.023,17.238,32.05,16.587,31.689,16.197z"/>
	</g>
</g>
</svg>
