<?xml version="1.0" encoding="utf-8"?>
<!-- Generator: Adobe Illustrator 16.0.0, SVG Export Plug-In . SVG Version: 6.00 Build 0)  -->
<!DOCTYPE svg PUBLIC "-//W3C//DTD SVG 1.1//EN" "http://www.w3.org/Graphics/SVG/1.1/DTD/svg11.dtd">
<svg version="1.1" id="Layer_1" xmlns="http://www.w3.org/2000/svg" xmlns:xlink="http://www.w3.org/1999/xlink" x="0px" y="0px"
	 width="512px" height="512px" viewBox="0 0 512 512" enable-background="new 0 0 512 512" xml:space="preserve">
<circle fill="#F9F9F9" cx="224.28" cy="122.335" r="99.792"/>
<path fill="#F9F7F7" d="M290.18,372.258c0-33.577,27.222-60.801,60.8-60.801h41.114c-14.369-46.129-40.139-84.935-72.908-110.761
	c-22.576,27.31-56.707,44.716-94.906,44.716c-38.198,0-72.333-17.406-94.908-44.716C78.028,241.16,43.821,313.459,43.821,395.931
	c0,0,74.015,26.611,178.796,26.611c24.189,0,46.912-1.421,67.563-3.603V372.258z"/>
<path fill="#F7F5F5" d="M415.059,323.457h-59.76c-29.336,0-53.119,23.783-53.119,53.121v59.761
	c0,29.336,23.783,53.118,53.119,53.118h59.76c29.339,0,53.121-23.782,53.121-53.118v-59.761
	C468.18,347.24,444.397,323.457,415.059,323.457z M437.551,401.385c-7.653,6.295-15.24,12.668-22.879,18.981
	c-0.209,0.186-0.426,0.374-0.572,0.615c2.158,9.391,4.576,18.731,6.83,28.104c1.713,4.698-2.293,10.241-7.323,9.872
	c-1.738-0.021-3.253-0.975-4.64-1.92c-7.488-4.729-14.979-9.457-22.469-14.182c-0.639-0.391-1.239-0.88-1.959-1.114
	c-8.492,5.115-16.855,10.46-25.326,15.617c-2.33,1.391-5.424,1.372-7.71-0.097c-2.409-1.437-3.896-4.396-3.325-7.189
	c2.441-10.02,5.188-19.986,7.517-30.026c-6.879-5.921-13.867-11.725-20.779-17.607c-1.566-1.269-3.264-2.597-3.942-4.574
	c-1.659-3.97,0.969-9.146,5.318-9.766c10.354-0.875,20.782-1.244,31.114-2.193c3.572-8.539,7.01-17.143,10.54-25.703
	c0.656-1.707,1.417-3.484,2.916-4.63c3.318-2.841,9.142-1.89,11.025,2.166c3.817,9.454,7.566,18.94,11.359,28.407
	c0.063,0.319,0.365,0.428,0.662,0.428c9.492,0.65,18.977,1.424,28.467,2.1c2.725,0.058,5.426,1.558,6.656,4.029
	C440.555,395.48,440.045,399.334,437.551,401.385z"/>
</svg>
