<?xml version="1.0" encoding="utf-8"?>
<!-- Generator: Adobe Illustrator 16.0.0, SVG Export Plug-In . SVG Version: 6.00 Build 0)  -->
<!DOCTYPE svg PUBLIC "-//W3C//DTD SVG 1.1//EN" "http://www.w3.org/Graphics/SVG/1.1/DTD/svg11.dtd">
<svg version="1.1" id="Layer_1" xmlns:sketch="http://www.bohemiancoding.com/sketch/ns"
	 xmlns="http://www.w3.org/2000/svg" xmlns:xlink="http://www.w3.org/1999/xlink" x="0px" y="0px" width="32px" height="64px"
	 viewBox="0 0 32 64" enable-background="new 0 0 32 64" xml:space="preserve">
<title>icon-1</title>
<desc>Created with Sketch.</desc>
<path id="Shape" display="none" fill="#505977" d="M16,32C7.2,32,0,24.8,0,16S7.2,0,16,0s16,7.2,16,16S24.8,32,16,32L16,32z M16,2
	C8.3,2,2,8.3,2,16s6.3,14,14,14s14-6.3,14-14S23.7,2,16,2L16,2z M27,17c-0.6,0-1-0.4-1-1c0-5.5-4.5-10-10-10S6,10.5,6,16
	c0,0.6-0.4,1-1,1s-1-0.4-1-1C4,9.4,9.4,4,16,4c6.6,0,12,5.4,12,12C28,16.6,27.6,17,27,17L27,17z M15.7,22l2.7-12
	C18.5,9.5,19.1,9.1,19.6,9.3c0.5,0.1,0.9,0.7,0.801,1.2L17.6,22.6C18.4,23,19,23.9,19,25c0,1.7-1.3,3-3,3s-3-1.3-3-3
	C13,23.5,14.2,22.2,15.7,22L15.7,22z M16,26c0.6,0,1-0.4,1-1s-0.4-1-1-1c-0.6,0-1,0.4-1,1S15.4,26,16,26L16,26z"/>
<path id="Shape_1_" display="none" fill="#FFFFFF" d="M16,64C7.2,64,0,56.8,0,48s7.2-16,16-16s16,7.2,16,16S24.8,64,16,64L16,64z
	 M16,34C8.3,34,2,40.3,2,48s6.3,14,14,14s14-6.3,14-14S23.7,34,16,34L16,34z M27,49c-0.6,0-1-0.4-1-1c0-5.5-4.5-10-10-10
	S6,42.5,6,48c0,0.6-0.4,1-1,1s-1-0.4-1-1c0-6.6,5.4-12,12-12c6.6,0,12,5.4,12,12C28,48.6,27.6,49,27,49L27,49z M15.7,54l2.7-12
	c0.1-0.5,0.699-0.9,1.199-0.7c0.5,0.101,0.899,0.7,0.801,1.2L17.6,54.6C18.4,55,19,55.9,19,57c0,1.7-1.3,3-3,3s-3-1.3-3-3
	C13,55.5,14.2,54.2,15.7,54L15.7,54z M16,58c0.6,0,1-0.4,1-1s-0.4-1-1-1c-0.6,0-1,0.4-1,1S15.4,58,16,58L16,58z"/>
<g>
	<g>
		<path fill="#FFFFFF" d="M26.675,47.607c-0.519,0-0.922,0.428-0.922,0.983v13.472h-6.539v-5.502c0-0.515-0.401-0.965-0.889-0.965
			h-4.729c-0.521,0-0.939,0.45-0.939,0.965v5.502H6.134V49.039c0-0.52-0.401-0.951-0.922-0.951c-0.486,0-0.888,0.434-0.888,0.951
			v14.01c0,0.52,0.402,0.951,0.888,0.951h8.384c0.486,0,0.888-0.432,0.888-0.951v-5.5h2.918v5.5c0,0.52,0.4,0.951,0.922,0.951h8.35
			c0.487,0,0.891-0.432,0.891-0.951V48.594C27.564,48.035,27.162,47.607,26.675,47.607z"/>
		<path fill="#FFFFFF" d="M31.689,48.375l-7.277-7.811v-5.322c0-0.555-0.42-0.982-0.939-0.982c-0.486,0-0.89,0.428-0.89,0.982v3.369
			l-6.002-6.45c-0.184-0.199-0.402-0.306-0.62-0.306c-0.252,0-0.47,0.111-0.654,0.306L0.232,48.27c-0.361,0.385-0.385,1.004,0,1.359
			c0.336,0.413,0.914,0.387,1.275,0L15.96,34.221l14.421,15.553c0.148,0.16,0.368,0.254,0.652,0.254c0.252,0,0.47-0.094,0.654-0.254
			C32.023,49.416,32.05,48.766,31.689,48.375z"/>
	</g>
</g>
<g>
	<g>
		<path fill="#505977" d="M26.675,15.429c-0.519,0-0.922,0.428-0.922,0.985v13.47h-6.539v-5.5c0-0.515-0.401-0.966-0.889-0.966
			h-4.729c-0.521,0-0.939,0.452-0.939,0.966v5.5H6.134V16.862c0-0.519-0.401-0.952-0.922-0.952c-0.486,0-0.888,0.433-0.888,0.952
			v14.009c0,0.521,0.402,0.952,0.888,0.952h8.384c0.486,0,0.888-0.432,0.888-0.952v-5.5h2.918v5.5c0,0.521,0.4,0.952,0.922,0.952
			h8.35c0.487,0,0.891-0.432,0.891-0.952V16.416C27.564,15.857,27.162,15.429,26.675,15.429z"/>
		<path fill="#505977" d="M31.689,16.197l-7.277-7.809V3.064c0-0.555-0.42-0.982-0.939-0.982c-0.486,0-0.89,0.428-0.89,0.982v3.371
			l-6.002-6.451c-0.184-0.199-0.402-0.306-0.62-0.306c-0.252,0-0.47,0.111-0.654,0.306L0.232,16.091
			c-0.361,0.386-0.385,1.005,0,1.361c0.336,0.413,0.914,0.386,1.275,0L15.961,2.043l14.421,15.553
			c0.149,0.161,0.368,0.253,0.652,0.253c0.252,0,0.47-0.092,0.655-0.253C32.023,17.238,32.05,16.587,31.689,16.197z"/>
	</g>
</g>
<g transform="translate(0 -1028.4)">
	<path fill="#6E7A7A" d="M3.404,1030.506c-1.752,0-3.172,1.912-3.172,4.246v21.226c0,2.334,1.42,4.245,3.172,4.245h25.374
		c1.753,0,3.171-1.911,3.171-4.245v-21.226c0-2.333-1.418-4.246-3.171-4.246H3.404z"/>
	<path fill="#94989C" d="M3.404,1028.384c-1.752,0-3.172,1.9-3.172,4.245v21.227c0,2.346,1.42,4.245,3.172,4.245h25.374
		c1.753,0,3.171-1.899,3.171-4.245v-21.227c0-2.345-1.418-4.245-3.171-4.245H3.404z"/>
	<rect x="3.404" y="1032.629" fill="#A5A8A8" width="11.101" height="21.227"/>
	<path fill="#162029" d="M8.657,1034.752c-2.072,0.208-3.673,2.524-3.667,5.307c0,1.489,0.468,2.91,1.289,3.914
		c-1.139,0.63-2.125,1.633-2.874,2.918v4.842v2.124h11.101v-2.124v-4.908c-0.753-1.256-1.753-2.231-2.875-2.853
		c0.821-1.003,1.288-2.425,1.288-3.914c0.007-2.931-1.764-5.313-3.954-5.321C8.861,1034.735,8.759,1034.741,8.657,1034.752z"/>
	<path fill="#505959" d="M17.677,1034.752v2.123h6.343v-2.123H17.677z M17.677,1038.997v2.123h11.102v-2.123H17.677z
		 M17.677,1043.242v2.123h11.102v-2.123H17.677z"/>
</g>
<g transform="translate(0 -1028.4)">
	<path fill="#90A0A1" d="M3.404,1062.683c-1.752,0-3.172,1.912-3.172,4.246v21.227c0,2.334,1.42,4.244,3.172,4.244h25.374
		c1.753,0,3.171-1.91,3.171-4.244v-21.227c0-2.334-1.418-4.246-3.171-4.246H3.404z"/>
	<path fill="#CED4D9" d="M3.404,1060.562c-1.752,0-3.172,1.9-3.172,4.244v21.228c0,2.346,1.42,4.245,3.172,4.245h25.374
		c1.753,0,3.171-1.899,3.171-4.245v-21.228c0-2.344-1.418-4.244-3.171-4.244H3.404z"/>
	<rect x="3.404" y="1064.806" fill="#ECF0F1" width="11.101" height="21.228"/>
	<path fill="#2C3E50" d="M8.657,1066.929c-2.072,0.207-3.673,2.524-3.667,5.307c0,1.488,0.468,2.91,1.289,3.914
		c-1.139,0.629-2.125,1.633-2.874,2.918v4.842v2.124h11.101v-2.124v-4.908c-0.753-1.256-1.753-2.23-2.875-2.852
		c0.821-1.004,1.288-2.426,1.288-3.914c0.007-2.932-1.764-5.313-3.954-5.321C8.861,1066.913,8.759,1066.919,8.657,1066.929z"/>
	<path fill="#7F8C8D" d="M17.677,1066.929v2.123h6.343v-2.123H17.677z M17.677,1071.174v2.123h11.102v-2.123H17.677z
		 M17.677,1075.42v2.123h11.102v-2.123H17.677z"/>
</g>
</svg>
